<?xml version="1.0" standalone="no"?>
<!DOCTYPE svg PUBLIC "-//W3C//DTD SVG 1.1//EN" "http://www.w3.org/Graphics/SVG/1.1/DTD/svg11.dtd">
<svg version="1.1" xmlns="http://www.w3.org/2000/svg" viewBox="0 0 1588 992.4592944992023" width="1588" height="992.4592895507812">
  <!-- svg-source:excalidraw -->
  
  <defs>
    <style>
      @font-face {
        font-family: "Virgil";
        src: url("https://excalidraw.com/Virgil.woff2");
      }
      @font-face {
        font-family: "Cascadia";
        src: url("https://excalidraw.com/Cascadia.woff2");
      }
    </style>
  </defs>
  <rect x="0" y="0" width="1588" height="992.4592944992023" fill="#ffffff"/><g stroke-linecap="round" transform="translate(182 138) rotate(0 318.5 168)"><path d="M-0.76 0.54 C134.94 1.39, 267.95 1.63, 636.62 0.14 M-0.1 0.3 C213.9 0.89, 427.92 0.6, 637.22 0.11 M637.49 0.63 C636.92 96.28, 637.67 194.29, 636.46 336.4 M637.59 0.4 C638.19 94.86, 638.68 188.79, 637.22 336.52 M637.31 336.3 C502.12 334.46, 369.13 335.52, -0.52 336.29 M636.62 335.77 C491.47 335.34, 346.41 335.74, -0.32 336 M0.33 335.97 C-1.07 224.49, -0.64 114.86, -0.03 -1.03 M0.04 335.73 C-0.34 205.81, -0.45 74.95, 0.19 0.44" stroke="#000000" stroke-width="1" fill="none"/></g><g stroke-linecap="round" transform="translate(181 139) rotate(0 57 167)"><path d="M-0.82 -0.94 C28.59 -0.15, 52.24 0.3, 113.88 0.96 M-0.9 0.57 C24.54 -0.19, 48.15 -1, 113.19 0.3 M113.17 1.21 C117.17 75.03, 115.13 149.42, 113.43 333.55 M114.11 0.37 C114.56 111.5, 114.87 221.52, 114.33 334.06 M112.55 335.71 C80.6 334.03, 45.65 334.25, -1.54 334.3 M114.58 334.92 C81.54 334.12, 49.45 333.95, -0.85 333.26 M0.08 334.88 C1.88 260.73, 1.07 186.74, 1.2 -0.94 M-0.09 333.99 C1.32 206.58, 1.19 80.38, 0.64 -0.34" stroke="#000000" stroke-width="1" fill="none"/></g><g stroke-linecap="round" transform="translate(327 167) rotate(0 102 14)"><path d="M-1.29 0.11 C47.19 1.65, 92.95 0.58, 204.83 1.59 M-0.45 -0.12 C46.98 1.15, 93.5 0.98, 204.64 0.84 M202.94 -0.61 C202.23 6.51, 202.68 12.82, 204.64 27.6 M204.88 0.33 C203.22 9.28, 202.95 18.01, 203.02 28.31 M203.67 28.71 C141.49 30.31, 80.26 29.81, 0.25 27.31 M204.49 27.96 C147.6 28.91, 91.56 27.85, -0.48 27.31 M-0.66 27.57 C-0.19 15.74, 0.9 6.68, -1.13 -1.02 M0.68 27.23 C-0.33 16.73, -0.81 5.89, -0.38 0.12" stroke="#000000" stroke-width="1" fill="none"/></g><g stroke-linecap="round" transform="translate(593 161) rotate(0 45.5 21)"><path d="M0.13 -2 C33.12 -0.13, 64.83 -0.23, 92.21 0.31 M-0.04 0.26 C34.54 0.65, 67.97 0.69, 91.89 -0.4 M92.14 1.99 C92.56 11.27, 89.38 20.54, 89.09 41.59 M90.94 0.33 C91.56 9.03, 91.39 18.23, 90.02 41.81 M92.44 40.54 C69.77 44.44, 52.37 42.4, 0.63 41.87 M90.9 41.26 C56.19 42.59, 19.59 42.25, 0.87 41.66 M1.74 42.4 C1.93 24.43, -1.19 8.59, 0.8 -1.98 M0.27 41.57 C-0.14 30.55, 0.68 20.14, 0.78 -0.97" stroke="#000000" stroke-width="1" fill="none"/></g><g stroke-linecap="round" transform="translate(703.5 163) rotate(0 45.5 21)"><path d="M1.06 -0.3 C21.27 -0.92, 43.13 -1.4, 90.24 -0.2 M0.01 0.59 C21.45 -1.19, 41.98 -1.19, 91.3 0.87 M89.67 -1.33 C92.18 11.46, 90.42 28.33, 90.97 42.54 M91.99 -0.69 C91.85 9.81, 91.5 21.81, 90.01 42.54 M91.41 40.35 C71.71 43.73, 51.6 41.73, 1.88 40.74 M91.62 42.99 C56.87 42.35, 23.77 42.3, -0.73 41.29 M-1.85 41.31 C-2 31.33, 1.83 18.21, -1.88 1.08 M0.23 41.73 C-0.79 31.21, -0.94 17.97, -0.69 -0.4" stroke="#000000" stroke-width="1" fill="none"/></g><g stroke-linecap="round" transform="translate(330 216) rotate(0 232.5 118.5)"><path d="M-0.64 0.72 C146.27 -1.71, 294.55 -3.01, 465.49 -0.74 M-0.38 0.16 C123.06 -0.31, 245.39 0, 464.71 0.3 M466.65 -1.44 C465.45 92.88, 465.36 186.81, 463.81 236.65 M464.71 -0.78 C465.05 80.55, 464.47 158.64, 465.45 236.79 M464.75 236.5 C299.19 236.85, 131.14 236.85, -0.36 237.74 M464.58 237.16 C352.44 237.58, 239.7 237.59, -0.34 237.33 M-0.75 236.15 C0.28 170.51, -1.37 105.22, -0.42 -0.91 M0.75 236.65 C1.76 175.29, 0.56 114.35, 0.23 0.81" stroke="#000000" stroke-width="1" fill="none"/></g><g transform="translate(589 53) rotate(0 238 12.5)"><text x="0" y="18" font-family="Virgil, Segoe UI Emoji" font-size="20px" fill="#000000" text-anchor="start" style="white-space: pre;" direction="ltr">Here are the buttons to add and remove tasks</text></g><g stroke-linecap="round"><g transform="translate(683.4108565661271 81) rotate(0 5.485699266108782 43.54611341263949)"><path d="M-0.39 0.94 C1.27 15.12, 7.47 71.37, 9.14 85.58 M1.61 0.39 C3.71 14.65, 10.18 72.18, 11.36 86.7" stroke="#000000" stroke-width="1" fill="none"/></g><g transform="translate(683.4108565661271 81) rotate(0 5.485699266108782 43.54611341263949)"><path d="M-0.08 58.09 C0.17 65.34, 4.31 71.03, 13 86.38 M-2.29 59.1 C2.34 68.57, 6.66 79.29, 11.13 86.69" stroke="#000000" stroke-width="1" fill="none"/></g><g transform="translate(683.4108565661271 81) rotate(0 5.485699266108782 43.54611341263949)"><path d="M20.34 56.05 C15.83 63.71, 15.2 69.88, 13 86.38 M18.13 57.06 C15.63 67.36, 12.82 78.79, 11.13 86.69" stroke="#000000" stroke-width="1" fill="none"/></g></g><g transform="translate(210 10) rotate(0 116 12.5)"><text x="0" y="18" font-family="Virgil, Segoe UI Emoji" font-size="20px" fill="#000000" text-anchor="start" style="white-space: pre;" direction="ltr">TextBox to add tasks</text></g><g stroke-linecap="round"><g transform="translate(348.1132009020471 43) rotate(0 26.497834067400277 61.00319132374135)"><path d="M0.38 1.07 C9.37 21.48, 45.04 101.49, 53.88 121.41 M-0.88 0.59 C8.06 20.72, 44.56 99.32, 53.54 119.51" stroke="#000000" stroke-width="1" fill="none"/></g><g transform="translate(348.1132009020471 43) rotate(0 26.497834067400277 61.00319132374135)"><path d="M34.31 100.06 C39.22 105.52, 44.07 112.18, 52.05 120.99 M33.37 97.68 C36.01 103.01, 41.95 107.84, 53.69 118.68" stroke="#000000" stroke-width="1" fill="none"/></g><g transform="translate(348.1132009020471 43) rotate(0 26.497834067400277 61.00319132374135)"><path d="M52.98 91.55 C52.31 99.58, 51.65 108.75, 52.05 120.99 M52.05 89.17 C50.79 96.29, 52.83 102.9, 53.69 118.68" stroke="#000000" stroke-width="1" fill="none"/></g></g><g transform="translate(10 542) rotate(0 213 12.5)"><text x="0" y="18" font-family="Virgil, Segoe UI Emoji" font-size="20px" fill="#000000" text-anchor="start" style="white-space: pre;" direction="ltr">Lateral Menu to navigate between screens</text></g><g stroke-linecap="round"><g transform="translate(228 536) rotate(0 2.046092543029232 -43.94686976914292)"><path d="M0.47 -0.52 C1.32 -15.15, 4.08 -73.24, 4.83 -87.73 M-0.74 1.81 C-0.04 -13.2, 2.98 -74.48, 3.8 -89.71" stroke="#000000" stroke-width="1" fill="none"/></g><g transform="translate(228 536) rotate(0 2.046092543029232 -43.94686976914292)"><path d="M11.73 -61.31 C10.59 -69.06, 8.54 -77.1, 5.69 -89.95 M12.81 -60.44 C9.64 -69.25, 8.49 -74.63, 4.1 -89.41" stroke="#000000" stroke-width="1" fill="none"/></g><g transform="translate(228 536) rotate(0 2.046092543029232 -43.94686976914292)"><path d="M-8.77 -62.36 C-4.18 -69.9, -0.51 -77.64, 5.69 -89.95 M-7.68 -61.49 C-5.65 -69.94, -1.61 -75.06, 4.1 -89.41" stroke="#000000" stroke-width="1" fill="none"/></g></g><g transform="translate(871 314) rotate(0 259.5 12.5)"><text x="0" y="18" font-family="Virgil, Segoe UI Emoji" font-size="20px" fill="#000000" text-anchor="start" style="white-space: pre;" direction="ltr">Here we can see the display of all the tasks added</text></g><g stroke-linecap="round"><g transform="translate(865 334.542744019476) rotate(0 -54.6963984758919 4.996633341043605)"><path d="M0.96 0.01 C-17.19 1.51, -91.12 7.93, -109.95 9.82 M0.01 -1.04 C-18.11 0.54, -92.07 9.27, -110.35 11.03" stroke="#000000" stroke-width="1" fill="none"/></g><g transform="translate(865 334.542744019476) rotate(0 -54.6963984758919 4.996633341043605)"><path d="M-83.42 -0.46 C-90.06 -0.92, -93.15 2.12, -111.31 11.27 M-83.7 -2.09 C-91.06 2.63, -100.56 4.77, -111.14 10.21" stroke="#000000" stroke-width="1" fill="none"/></g><g transform="translate(865 334.542744019476) rotate(0 -54.6963984758919 4.996633341043605)"><path d="M-81.21 19.94 C-88.45 15.21, -92.01 13.96, -111.31 11.27 M-81.49 18.32 C-89.35 16.85, -99.52 12.81, -111.14 10.21" stroke="#000000" stroke-width="1" fill="none"/></g></g><g stroke-linecap="round" transform="translate(856 497.25) rotate(0 318.5 168)"><path d="M0.35 -0.58 C131.34 -1.54, 261.15 -0.7, 637.58 -0.72 M-0.01 0.22 C250.77 2.08, 500.93 1.76, 636.64 0.12 M635.83 -1.17 C634.8 129.51, 634.71 259.86, 638.18 335.76 M636.99 0.43 C637.98 107.3, 637.58 214.26, 636.71 336.02 M636.52 335.48 C392.18 338.85, 146.63 337.55, -0.44 336.26 M636.89 336.28 C388.55 334.38, 140.38 333.99, 0.29 336.04 M0.54 335.26 C1.18 215.01, 1.74 94.25, -1.32 -0.01 M-0.51 335.89 C-0.49 245.13, 0.14 152.78, 0.41 -0.45" stroke="#000000" stroke-width="1" fill="none"/></g><g stroke-linecap="round" transform="translate(926 537.25) rotate(0 31 26)"><path d="M-0.62 -0.91 C21.13 0.28, 40.59 -1.96, 63.74 1.36 M-0.3 0.3 C24.13 -0.29, 49.76 -0.29, 61.33 -0.45 M62.43 -0.33 C61.23 15.38, 63.19 29.8, 60.66 50.89 M61.75 0.48 C63.16 16.25, 61.77 32.52, 62.73 52.11 M60.23 53.52 C40.04 50.53, 21.87 52.51, 1.33 51.33 M62.69 51.37 C40.36 52.05, 18.35 50.75, -0.99 52.66 M-0.42 52.32 C-0.2 42.31, -0.07 28.13, -1.34 -1.15 M-0.51 51.61 C-0.28 34.13, -0.48 16.6, -0.49 -0.84" stroke="#000000" stroke-width="1" fill="none"/></g><g stroke-linecap="round" transform="translate(1041 537.25) rotate(0 31 26)"><path d="M-1.87 1.39 C15.27 1.07, 34.31 1.22, 60.66 -1.99 M-0.27 -0.21 C22.88 -0.06, 46.07 0, 61.03 -0.67 M61.34 -1.01 C61.4 12.86, 61.39 25.08, 61.1 51.02 M61.05 -0.32 C62.37 10.8, 62.28 22.3, 61.53 51.94 M61.25 50.07 C46.82 51.09, 29.32 52.14, 0.22 50.79 M62.44 51.36 C44.31 51.04, 24.9 51.37, 0.04 52.38 M0.6 54 C-2.03 35.52, 0.26 18.54, -0.89 0.94 M-0.16 51.68 C1.05 31.92, 0.86 12.1, 0.76 0.9" stroke="#000000" stroke-width="1" fill="none"/></g><g stroke-linecap="round" transform="translate(1147 535.25) rotate(0 31 26)"><path d="M-0.9 -0.98 C17.69 -0.98, 37.47 -1.85, 61.36 1.28 M-0.47 -0.06 C15.39 -0.36, 31.81 -0.26, 61.03 0.1 M62.22 -1.21 C61.36 11.52, 60.43 27.34, 60.73 52.98 M62.04 0.38 C61.74 13, 61.02 25.02, 63 51.15 M61.11 52.94 C45.78 49.76, 25.18 51.39, -0.64 53.08 M62.76 52.9 C44.45 51.96, 26.84 52.17, 0.73 51.58 M-0.59 52.21 C0.38 33.68, 1.1 14.38, 1.75 -1.94 M0.58 51.31 C-0.39 35.89, -0.64 18.21, 0.13 -0.14" stroke="#000000" stroke-width="1" fill="none"/></g><g stroke-linecap="round" transform="translate(1251 533.25) rotate(0 31 26)"><path d="M2 -1.7 C22.3 0.41, 44.1 -1.07, 62.94 1.66 M-0.32 0.54 C12.42 0.46, 25.1 0.86, 62.9 0.08 M63.46 -0.84 C63.29 16.85, 61.55 30.59, 62.21 52.71 M62.88 -0.97 C62.63 16.38, 61.37 34.4, 61.31 51.34 M62.25 51.71 C38.91 52.72, 14.33 53.61, 0.13 53.54 M61.71 52.51 C37.22 50.74, 13.44 51.51, 0.03 52.09 M0.97 50.43 C-0.3 33.7, 0.54 17.21, -1.14 -1.51 M0.58 52.67 C0.26 39.98, -1.47 28.16, -0.71 -0.45" stroke="#000000" stroke-width="1" fill="none"/></g><g stroke-linecap="round" transform="translate(1363 535.25) rotate(0 31 26)"><path d="M1.46 -0.84 C19.83 1.13, 36.68 -0.72, 62.21 0.71 M0.88 -0.97 C20.42 -0.53, 39.32 0.58, 61.31 -0.66 M62.25 -0.29 C62.31 20.66, 61.59 41.57, 62.13 53.54 M61.71 0.51 C61.63 19.78, 62.46 41.19, 62.03 52.09 M62.97 50.43 C40.49 51.71, 20.05 53.08, -1.14 50.49 M62.58 52.67 C48.77 52.2, 33.06 52.11, -0.71 51.55 M-1.16 53.59 C1.02 42.29, -0.28 28.11, -1.14 1.91 M0.66 51.27 C-1.01 36.69, -0.61 20.83, 0.16 0.86" stroke="#000000" stroke-width="1" fill="none"/></g><g stroke-linecap="round" transform="translate(930.5 609.25) rotate(0 31 26)"><path d="M0.02 -1.25 C21.49 -2.18, 40.06 -1.38, 61.49 -1.32 M0.08 0.3 C20.61 -0.99, 41.48 0.25, 61.88 -0.66 M63.76 0.03 C60.13 17.07, 64.03 35.7, 60.61 50.47 M62.21 0.44 C61.48 17, 62.56 34.09, 62.88 52.69 M60.46 52.09 C38.34 50.25, 12.43 51.01, -0.55 52.27 M61.26 51.04 C40.53 51.22, 19.01 51.52, -0.52 52.43 M1.77 50.13 C-0.61 35.43, 0.64 19.9, -0.45 0.03 M0.85 52.92 C-0.54 34.01, -0.78 15.76, -0.2 0.55" stroke="#000000" stroke-width="1" fill="none"/></g><g stroke-linecap="round" transform="translate(1045.5 609.25) rotate(0 31 26)"><path d="M-1.25 1.46 C22.86 -0.01, 48.44 -0.51, 60.68 0.73 M0.3 -0.27 C22.95 -0.32, 48.09 -0.17, 61.34 0.43 M62.03 -1.95 C61.62 18.41, 62.4 31.54, 60.47 52.38 M62.44 -0.31 C62.81 14.25, 63.32 27.85, 62.69 52.84 M62.09 52.17 C40.74 49.62, 21.62 50.98, 0.27 52.89 M61.04 51.88 C38.35 51.25, 15.53 51.02, 0.43 52.17 M-1.87 51.85 C0.15 32.92, 1.12 11.19, 0.03 0.89 M0.92 51.52 C-0.38 35.05, -0.71 19.32, 0.55 -0.2" stroke="#000000" stroke-width="1" fill="none"/></g><g stroke-linecap="round" transform="translate(1151.5 607.25) rotate(0 31 26)"><path d="M1.46 -1.92 C21.16 -0.73, 41.82 -0.93, 62.73 1.71 M-0.27 -0.95 C18.8 0.11, 38.02 -0.85, 62.43 0.17 M60.05 -0.78 C64.4 19.64, 61.06 37.75, 62.38 51.19 M61.69 0.42 C62.88 20.43, 62.99 39.67, 62.84 52.2 M62.17 50.6 C45 51.39, 31.27 52.3, 0.89 53.46 M61.88 51.47 C45.61 51.18, 29.29 51.84, 0.17 52.88 M-0.15 51.94 C0.64 39.39, -0.91 24.99, 0.89 0.25 M-0.48 51.94 C-1.16 32.81, -0.65 14.95, -0.2 -0.51" stroke="#000000" stroke-width="1" fill="none"/></g><g stroke-linecap="round" transform="translate(1255.5 605.25) rotate(0 31 26)"><path d="M-1.92 -0.01 C17.56 -0.96, 36.03 0.28, 63.71 0.15 M-0.95 -0.27 C19.42 0.04, 37.59 0.6, 62.17 0.78 M61.22 1.94 C62 18.79, 60.48 40.75, 61.19 53.5 M62.42 0.77 C63.16 17.57, 62.91 34.21, 62.2 51.43 M60.6 50.09 C47.53 51.51, 34.62 52.94, 1.46 51.19 M61.47 51.7 C47.76 51.41, 34.4 52.1, 0.88 51.6 M-0.06 53.1 C1.4 31.34, 0.52 12.47, 0.25 1.23 M-0.06 51.29 C-0.87 31.75, 0.08 11.71, -0.51 -0.22" stroke="#000000" stroke-width="1" fill="none"/></g><g stroke-linecap="round" transform="translate(1367.5 607.25) rotate(0 31 26)"><path d="M-0.01 -1.12 C14.21 -0.73, 30.17 2.3, 62.15 0.17 M-0.27 0.3 C20.35 -0.08, 41.38 0.75, 62.78 0.88 M63.94 0 C60.1 14.14, 61.87 30.54, 63.5 52.42 M62.77 0.94 C62.73 18.57, 62.68 35.97, 61.43 51.23 M60.09 51.36 C42.57 51.83, 25.11 53.03, -0.81 50.52 M61.7 51.77 C48.83 52.1, 36.87 52.55, -0.4 52.89 M1.1 52.91 C-0.41 41.3, 0.93 30.79, 1.23 1.71 M-0.71 51.61 C0.05 32.19, 0.05 10.76, -0.22 0.58" stroke="#000000" stroke-width="1" fill="none"/></g><g stroke-linecap="round" transform="translate(930.5 683.25) rotate(0 31 26)"><path d="M-0.18 -1.45 C11.81 1.36, 25.47 -0.2, 61.83 0.32 M0.27 -0.69 C18.95 1.27, 36.51 -0.11, 62.15 0.36 M60.65 1.3 C62.61 17.16, 63.27 35.52, 61.58 53.91 M62.86 -0.78 C62.87 16.57, 61.57 33.72, 62.49 51.96 M63.48 50.44 C48.47 51.18, 35.46 50.75, -1.16 53.46 M61.36 52.75 C37.73 52, 14.09 51.79, -0.72 51.01 M0.53 53.48 C-2.2 37.74, 1.55 24.37, -0.41 0.05 M0.82 52.64 C0.29 35.63, 1.28 18.92, 0.24 0.9" stroke="#000000" stroke-width="1" fill="none"/></g><g stroke-linecap="round" transform="translate(1045.5 683.25) rotate(0 31 26)"><path d="M-1.45 -0.97 C18.13 -0.03, 33.19 -0.12, 62.32 -0.15 M-0.69 0.8 C18.25 0.05, 34.45 -0.02, 62.36 0.43 M63.3 0.25 C61.58 20.14, 62.12 38.04, 63.91 52.66 M61.22 0.52 C61.06 18.3, 60.89 38.65, 61.96 51.19 M60.44 52.02 C44.69 53.01, 28.31 51.3, 1.46 53.85 M62.75 52.07 C43.58 52.38, 25.26 50.88, -0.99 51.84 M1.48 50.08 C0.22 35.46, 1.63 14.87, 0.05 0.18 M0.64 51.94 C0.07 40.85, -0.56 28.1, 0.9 -0.08" stroke="#000000" stroke-width="1" fill="none"/></g><g stroke-linecap="round" transform="translate(1151.5 681.25) rotate(0 31 26)"><path d="M-0.97 1.52 C20.17 0.42, 40.35 0.77, 61.85 -0.33 M0.8 0.66 C12.72 -0.29, 25.15 0.79, 62.43 0.7 M62.25 -0.66 C62.56 17.92, 61.23 38, 62.66 53.34 M62.52 -0.75 C61.67 12.76, 62.94 27.3, 61.19 51.57 M62.02 50.63 C38.5 49.72, 12.73 52.97, 1.85 51.84 M62.07 51.68 C41.01 51.93, 17.74 51.47, -0.16 52.53 M-1.92 52.52 C1.69 35.41, -0.54 15.02, 0.18 -1.36 M-0.06 51.71 C0.5 39.14, -0.19 29.04, -0.08 -0.4" stroke="#000000" stroke-width="1" fill="none"/></g><g stroke-linecap="round" transform="translate(1255.5 679.25) rotate(0 31 26)"><path d="M1.52 -0.09 C18 0.13, 36.38 0.15, 61.67 -1.97 M0.66 0.22 C19.56 -0.35, 40.92 -0.07, 62.7 0.47 M61.34 0.91 C62.22 11.67, 64.25 24.84, 63.34 51.26 M61.25 -0.78 C60.68 20.56, 61.55 39.34, 61.57 52.88 M60.63 52.55 C37.01 50.85, 17.07 53.86, -0.16 53.02 M61.68 52.78 C46.82 51.32, 31.71 51.89, 0.53 52.56 M0.52 53.82 C1.54 34.61, -0.34 18.22, -1.36 -1.41 M-0.29 52.92 C-1.26 32.38, 0.57 12.21, -0.4 0.97" stroke="#000000" stroke-width="1" fill="none"/></g><g stroke-linecap="round" transform="translate(1367.5 681.25) rotate(0 31 26)"><path d="M-0.09 -0.03 C13.93 -0.15, 28.07 -0.8, 60.03 0.54 M0.22 -0.72 C14.46 -0.05, 29.05 0.29, 62.47 -0.67 M62.91 -0.12 C61.65 20.89, 62.72 39.29, 61.26 53.72 M61.22 -0.91 C62.76 11.51, 61.46 22.68, 62.88 52.74 M62.55 50.21 C47.07 53.03, 36.32 51.42, 1.02 50.73 M62.78 51.47 C38.06 50.81, 15.4 52.33, 0.56 52.27 M1.82 53.92 C0.09 32.61, 0.68 11.77, -1.41 1.64 M0.92 51.07 C0.27 33.99, -0.04 13.77, 0.97 0.43" stroke="#000000" stroke-width="1" fill="none"/></g><g stroke-linecap="round" transform="translate(932.5 759.25) rotate(0 31 26)"><path d="M0.49 -1.11 C25.75 0.51, 47.09 -0.84, 62.02 -0.58 M-0.24 0.28 C14.32 -1.11, 29.28 0.73, 62.98 -0.69 M61.29 -0.95 C62.52 17.6, 62.64 32.04, 63.71 50.97 M62.71 -0.94 C63.16 14.02, 62.24 27.67, 62.55 52.83 M63.56 50.32 C43.61 50.74, 22.98 52.06, -0.92 53.72 M62.46 52.14 C37.62 51.49, 14.58 51.66, -0.01 51.34 M0.11 50.87 C1.75 32.19, 0.8 15.86, -0.8 -1.03 M-0.34 51.06 C-0.72 33.29, 0.17 15.65, 0.35 -0.72" stroke="#000000" stroke-width="1" fill="none"/></g><g stroke-linecap="round" transform="translate(1047.5 759.25) rotate(0 31 26)"><path d="M-1.11 1.93 C16.62 -0.71, 31.17 -0.13, 61.42 -1.15 M0.28 -0.73 C16.37 -0.65, 35.52 1.12, 61.31 0.02 M61.05 0.72 C63.43 14.4, 62.19 28.81, 60.97 51.32 M61.06 0.95 C62.42 17.73, 62.25 35.94, 62.83 52.17 M60.32 53.29 C45.04 52.82, 30.09 51.56, 1.72 53.58 M62.14 51.12 C40.6 51.87, 20.17 52.28, -0.66 52.66 M-1.13 53.43 C-0.52 40.05, 2.18 26.33, -1.03 0.98 M-0.94 51.09 C-0.56 38.35, -0.06 25.1, -0.72 -0.41" stroke="#000000" stroke-width="1" fill="none"/></g><g stroke-linecap="round" transform="translate(1153.5 757.25) rotate(0 31 26)"><path d="M1.93 0.73 C20.24 -0.27, 41.61 -0.24, 60.85 -0.42 M-0.73 -0.93 C19.6 0.73, 41.77 -0.87, 62.02 -0.39 M62.72 1.92 C62.66 11.35, 63.52 20.29, 61.32 52.81 M62.95 0.19 C62.4 17.94, 62.91 36.67, 62.17 51.63 M63.29 51.32 C49.6 52.13, 35.6 53.2, 1.58 52.65 M61.12 51.21 C40.21 51.47, 19.23 51.43, 0.66 51.39 M1.43 51.22 C0.46 40.83, -0.83 24.78, 0.98 -0.76 M-0.91 51.42 C0.15 36.51, 0.53 20.46, -0.41 0.71" stroke="#000000" stroke-width="1" fill="none"/></g><g stroke-linecap="round" transform="translate(1257.5 755.25) rotate(0 31 26)"><path d="M0.73 -0.55 C19.51 -0.57, 39.69 -1.75, 61.58 0.58 M-0.93 -0.8 C18.02 1.43, 33.53 0.47, 61.61 -0.95 M63.92 0.85 C62.44 15.47, 60.72 26.83, 62.81 52.89 M62.19 0.03 C61.53 19.82, 62.34 38.72, 61.63 51.05 M61.32 52.34 C39.2 51.48, 16.82 53.98, 0.65 52.9 M61.21 51.59 C39.91 51.44, 18.4 52.11, -0.61 51.52 M-0.78 52.48 C2.22 35.31, -0.74 21.2, -0.76 -0.07 M-0.58 51.98 C0.41 38.53, -0.23 23.94, 0.71 -0.26" stroke="#000000" stroke-width="1" fill="none"/></g><g stroke-linecap="round" transform="translate(1369.5 757.25) rotate(0 31 26)"><path d="M-0.55 -0.62 C15.19 -0.81, 29.18 -0.64, 62.58 -0.48 M-0.8 0.91 C21.34 -0.12, 40.74 0.18, 61.05 -0.35 M62.85 0.68 C63.9 12.09, 61.51 27.05, 62.89 53.41 M62.03 0.02 C63.04 11.53, 62.67 21.04, 61.05 52.78 M62.34 52.65 C47.69 53.52, 36.82 52.44, 0.9 52.93 M61.59 51.38 C42.54 50.85, 23.77 50.9, -0.48 52.05 M0.48 53.93 C-1.17 38.31, 0.6 25.93, -0.07 -0.68 M-0.02 51.92 C0.83 40.56, 0.06 31.27, -0.26 0.53" stroke="#000000" stroke-width="1" fill="none"/></g><g transform="translate(1124 438.25) rotate(0 227 12.5)"><text x="0" y="18" font-family="Virgil, Segoe UI Emoji" font-size="20px" fill="#000000" text-anchor="start" style="white-space: pre;" direction="ltr">You can click in every day to add a new task</text></g><g stroke-linecap="round"><g transform="translate(1222.5279659089324 464.25) rotate(0 91.0276820765497 87.62966973768079)"><path d="M-0.46 0.34 C30.13 29.69, 152.14 146.7, 182.51 175.78 M1.5 -0.52 C32.11 28.52, 152.16 144.63, 182.11 174.07" stroke="#000000" stroke-width="1" fill="none"/></g><g transform="translate(1222.5279659089324 464.25) rotate(0 91.0276820765497 87.62966973768079)"><path d="M155.32 163.49 C162 165.08, 166.44 167.27, 180.86 173.64 M154.01 160.91 C162.82 165.91, 171.75 169.4, 182.18 174.05" stroke="#000000" stroke-width="1" fill="none"/></g><g transform="translate(1222.5279659089324 464.25) rotate(0 91.0276820765497 87.62966973768079)"><path d="M169.64 148.79 C173.15 153.54, 174.46 158.94, 180.86 173.64 M168.33 146.21 C172.44 156.03, 176.75 164.24, 182.18 174.05" stroke="#000000" stroke-width="1" fill="none"/></g></g><g stroke-linecap="round" transform="translate(472 629.25) rotate(0 151 119)"><path d="M0.62 0.4 C76.03 -1.87, 149.55 -1.69, 302.98 -0.27 M-0.62 -0.31 C120.57 -0.97, 241.3 -1.46, 301.31 -0.62 M302.02 -0.5 C301.33 55.3, 304.18 110.52, 301.36 237.82 M301.25 0.51 C303.76 89.54, 302.92 179.97, 301.97 237.89 M301.69 237.71 C225.07 235.76, 151 236.05, 1.02 236.55 M301.93 237.3 C189.8 240.42, 78.87 239.98, -0.54 238.52 M-1.51 237.08 C-2.52 146.89, -1.66 58.92, 0.5 0.52 M-0.35 237.55 C0.72 188.24, 0.86 138.92, -0.52 -0.36" stroke="#000000" stroke-width="1" fill="none"/></g><g stroke-linecap="round" transform="translate(570.5 806.25) rotate(0 45.5 21)"><path d="M-1.08 -0.55 C21.93 0.15, 44.94 -0.87, 90.13 -1.03 M0.34 0.62 C34.63 0.52, 70.98 1.6, 90.63 -0.23 M92.4 -1.35 C89.7 14.89, 90.41 26.94, 92.39 42.6 M90.81 -0.66 C91.13 9.29, 91.97 20.96, 91.31 41.27 M89 42.35 C55.55 43.95, 20.19 41.34, -0.2 40.47 M90.75 42.1 C67.84 42.56, 43.61 41.95, 0.13 41.86 M-1.75 43.65 C2.29 30.56, -1.3 20.37, -0.78 0.95 M-0.52 42.13 C0.49 26.69, -0.5 11.06, 0.17 0.69" stroke="#000000" stroke-width="1" fill="none"/></g><g stroke-linecap="round" transform="translate(520 739.25) rotate(0 102 14)"><path d="M-1.64 -0.75 C64.61 -2.99, 128.94 -3.07, 205.44 -0.44 M0.57 -0.7 C63.4 0.2, 126.38 -0.54, 204.23 -0.78 M202.3 1.94 C203.48 11.66, 205.8 19.8, 202.06 26.95 M203.16 0.71 C204.21 9.46, 203.25 16.82, 203.27 27.48 M204.23 27.14 C122.99 25.1, 40.45 25.73, 0.6 29.04 M203.97 27.47 C130.94 30.42, 58.36 29.76, -0.37 27.32 M-0.61 26.75 C0.3 19.86, -1.01 9.85, -1.87 -0.32 M0.97 27.44 C0.72 21.8, 0.12 14.18, -0.13 -0.54" stroke="#000000" stroke-width="1" fill="none"/></g><g stroke-linecap="round" transform="translate(522 669.25) rotate(0 102 14)"><path d="M0.5 0.85 C49.48 -2.7, 98.9 -3.18, 203.65 0.28 M0.02 0.89 C78.5 -1.14, 155.88 -1.94, 204.32 -0.57 M203.14 0.72 C203.91 8.48, 202.8 14.27, 205.95 27.17 M203.04 -0.82 C203.06 7.25, 203.57 13.51, 203.36 28.51 M204.39 29.62 C148.34 27.67, 94.77 28.34, 1.11 29.72 M204.77 27.83 C145.43 26.93, 88.01 26.85, -0.02 28.72 M-1.98 26.12 C-0.04 21.24, 0.06 16.78, -1.66 -1.43 M0.47 27.83 C-0.3 17.24, 0.83 6.82, -0.9 0.6" stroke="#000000" stroke-width="1" fill="none"/></g><g transform="translate(184 666.25) rotate(0 87.5 12.5)"><text x="0" y="18" font-family="Virgil, Segoe UI Emoji" font-size="20px" fill="#000000" text-anchor="start" style="white-space: pre;" direction="ltr">TextBox of date</text></g><g transform="translate(162.5 770.75) rotate(0 86.5 12.5)"><text x="0" y="18" font-family="Virgil, Segoe UI Emoji" font-size="20px" fill="#000000" text-anchor="start" style="white-space: pre;" direction="ltr">TextBox of task</text></g><g stroke-linecap="round"><g transform="translate(336 787.25) rotate(0 104.67450344413521 -16.125182224609887)"><path d="M-0.56 0.82 C34.3 -4.56, 174.9 -25.8, 209.91 -31.31 M1.34 0.21 C35.97 -5, 174.4 -27.87, 208.92 -33.07" stroke="#000000" stroke-width="1" fill="none"/></g><g transform="translate(336 787.25) rotate(0 104.67450344413521 -16.125182224609887)"><path d="M184.06 -18.66 C193.18 -24.51, 201.12 -29.05, 208.51 -33.95 M183.23 -19.44 C193.2 -23.72, 202.91 -28.76, 208.23 -33.89" stroke="#000000" stroke-width="1" fill="none"/></g><g transform="translate(336 787.25) rotate(0 104.67450344413521 -16.125182224609887)"><path d="M180.84 -38.93 C191.3 -37.45, 200.4 -34.66, 208.51 -33.95 M180.01 -39.71 C191.06 -36.53, 201.96 -34.11, 208.23 -33.89" stroke="#000000" stroke-width="1" fill="none"/></g></g><g stroke-linecap="round"><g transform="translate(368 671.25) rotate(0 83.88511982113124 8.733450566991223)"><path d="M-0.68 0.9 C27.31 3.64, 140.2 14.62, 168.45 17.13 M1.16 0.33 C28.99 2.69, 139.85 12.78, 167.74 15.61" stroke="#000000" stroke-width="1" fill="none"/></g><g transform="translate(368 671.25) rotate(0 83.88511982113124 8.733450566991223)"><path d="M140.21 23.9 C150.5 22.1, 158.53 18.17, 166.96 17.34 M137.92 23.91 C146.84 20.26, 156.33 18.61, 168.19 16.39" stroke="#000000" stroke-width="1" fill="none"/></g><g transform="translate(368 671.25) rotate(0 83.88511982113124 8.733450566991223)"><path d="M142.16 3.47 C151.91 8.66, 159.27 11.74, 166.96 17.34 M139.86 3.48 C148.07 5.79, 156.98 10.1, 168.19 16.39" stroke="#000000" stroke-width="1" fill="none"/></g></g><g transform="translate(504 954.25) rotate(358.5558744690641 127.5 12.5)"><text x="0" y="18" font-family="Virgil, Segoe UI Emoji" font-size="20px" fill="#000000" text-anchor="start" style="white-space: pre;" direction="ltr">Button to save the task</text></g><g stroke-linecap="round"><g transform="translate(544.0872683884968 947.446851250106) rotate(0 38.924478036671815 -55.612283417370804)"><path d="M-0.06 1.19 C12.99 -17.7, 66.19 -93.6, 79.39 -112.41 M-1.54 0.77 C11.21 -18.01, 64.3 -91.9, 78.17 -110.99" stroke="#000000" stroke-width="1" fill="none"/></g><g transform="translate(544.0872683884968 947.446851250106) rotate(0 38.924478036671815 -55.612283417370804)"><path d="M71.98 -82.99 C72.62 -94.66, 77.03 -106.25, 77.36 -109.91 M69.32 -82.39 C72.76 -92.75, 76.54 -102.54, 78.52 -111.9" stroke="#000000" stroke-width="1" fill="none"/></g><g transform="translate(544.0872683884968 947.446851250106) rotate(0 38.924478036671815 -55.612283417370804)"><path d="M55.34 -95 C62.59 -101.95, 73.51 -108.85, 77.36 -109.91 M52.68 -94.4 C61.69 -100.82, 71.08 -106.56, 78.52 -111.9" stroke="#000000" stroke-width="1" fill="none"/></g></g></svg>